# xmcd CD database file
#
# Track frame offsets:
#	150
#	11575
#	23292
#	35475
#	47725
#	58817
#	71050
#	83395
#	95717
#	109445
#
# Disc length: 1633 seconds
#
# Revision: 0
# Processed by: cddbd v1.5.1PL2 Copyright (c) Steve Scherf et al.
# Submitted via: CDex 1.51
#
DISCID=7b065f0a
DTITLE=Ray Price - Crazy Arms
DYEAR=1900
DGENRE=Country
TTITLE0=Crazy Arms
TTITLE1=My Shoes Keep Walking Back To You
TTITLE2=Release Me
TTITLE3=The Same Old Me
TTITLE4=I'll Be There (If Ever You Want Me)
TTITLE5=Talk To Your Heart
TTITLE6=Don't Let The Stars Get In Your Eyes
TTITLE7=Heart Over Mind
TTITLE8=Under Your Spell Again
TTITLE9=Please Talk To My Heart
EXTD=
EXTT0=
EXTT1=
EXTT2=
EXTT3=
EXTT4=
EXTT5=
EXTT6=
EXTT7=
EXTT8=
EXTT9=
PLAYORDER=
